<svg width="900.0" height="1022.8399999999999" viewBox="0 0 900.0 1022.8399999999999" xmlns="http://www.w3.org/2000/svg">
<style>/* font and background color specifications */
svg {
    font-family: SFMono-Regular,Consolas,Liberation Mono,Menlo,monospace;
    font-size: 14px;
    font-kerning: normal;
    text-rendering: optimizeLegibility;
    fill: #24292e;
}

/* default key styling */
rect {
    fill: #f6f8fa;
    stroke: #c9cccf;
    stroke-width: 1;
}

/* color accent for combo boxes */
rect.combo {
    fill: #cdf;
}

/* color accent for held keys */
rect.held, rect.combo.held {
    fill: #fdd;
}

/* color accent for ghost (optional) keys */
rect.ghost, rect.combo.ghost {
    fill: #ddd;
}

text {
    text-anchor: middle;
    dominant-baseline: middle;
}

/* styling for layer labels */
text.label {
    font-weight: bold;
    text-anchor: start;
    stroke: white;
    stroke-width: 2;
    paint-order: stroke;
}

/* styling for combo tap, and key hold/shifted label text */
text.combo, text.hold, text.shifted {
    font-size: 11px;
}

text.hold {
    text-anchor: middle;
    dominant-baseline: auto;
}

text.shifted {
    text-anchor: middle;
    dominant-baseline: hanging;
}

/* styling for hold/shifted label text in combo box */
text.combo.hold, text.combo.shifted {
    font-size: 8px;
}

/* styling for combo dendrons */
path {
    stroke-width: 1;
    stroke: gray;
    fill: none;
}
</style>
<g class="layer-QWERTY">
<text x="30.0" y="28.0" class="label">QWERTY:</text>
<rect rx="6.0" ry="6.0" x="32.0" y="79.0" width="52.0" height="52.0" class=""/>
<text x="58.0" y="105.0" class="tap">
<tspan x="58.0" dy="-0.6em">~</tspan><tspan x="58.0" dy="1.2em">`</tspan></text>
<rect rx="6.0" ry="6.0" x="88.0" y="79.0" width="52.0" height="52.0" class=""/>
<text x="114.0" y="105.0" class="tap">Q</text>
<rect rx="6.0" ry="6.0" x="144.0" y="65.0" width="52.0" height="52.0" class=""/>
<text x="170.0" y="91.0" class="tap">W</text>
<rect rx="6.0" ry="6.0" x="200.0" y="58.0" width="52.0" height="52.0" class=""/>
<text x="226.0" y="84.0" class="tap">E</text>
<rect rx="6.0" ry="6.0" x="256.0" y="65.0" width="52.0" height="52.0" class=""/>
<text x="282.0" y="91.0" class="tap">R</text>
<rect rx="6.0" ry="6.0" x="312.0" y="72.0" width="52.0" height="52.0" class=""/>
<text x="338.0" y="98.0" class="tap">T</text>
<rect rx="6.0" ry="6.0" x="536.0" y="72.0" width="52.0" height="52.0" class=""/>
<text x="562.0" y="98.0" class="tap">Y</text>
<rect rx="6.0" ry="6.0" x="592.0" y="65.0" width="52.0" height="52.0" class=""/>
<text x="618.0" y="91.0" class="tap">U</text>
<rect rx="6.0" ry="6.0" x="648.0" y="58.0" width="52.0" height="52.0" class=""/>
<text x="674.0" y="84.0" class="tap">I</text>
<rect rx="6.0" ry="6.0" x="704.0" y="65.0" width="52.0" height="52.0" class=""/>
<text x="730.0" y="91.0" class="tap">O</text>
<rect rx="6.0" ry="6.0" x="760.0" y="79.0" width="52.0" height="52.0" class=""/>
<text x="786.0" y="105.0" class="tap">P</text>
<rect rx="6.0" ry="6.0" x="816.0" y="79.0" width="52.0" height="52.0" class=""/>
<text x="842.0" y="105.0" class="tap">
<tspan x="842.0" dy="-0.6em">|</tspan><tspan x="842.0" dy="1.2em">\</tspan></text>
<rect rx="6.0" ry="6.0" x="32.0" y="135.0" width="52.0" height="52.0" class=""/>
<text x="58.0" y="161.0" class="tap">Esc</text>
<text x="58.0" y="185.0" class="hold">LCtrl</text>
<rect rx="6.0" ry="6.0" x="88.0" y="135.0" width="52.0" height="52.0" class=""/>
<text x="114.0" y="161.0" class="tap">A</text>
<rect rx="6.0" ry="6.0" x="144.0" y="121.0" width="52.0" height="52.0" class=""/>
<text x="170.0" y="147.0" class="tap">S</text>
<rect rx="6.0" ry="6.0" x="200.0" y="114.0" width="52.0" height="52.0" class=""/>
<text x="226.0" y="140.0" class="tap">D</text>
<rect rx="6.0" ry="6.0" x="256.0" y="121.0" width="52.0" height="52.0" class=""/>
<text x="282.0" y="147.0" class="tap">F</text>
<rect rx="6.0" ry="6.0" x="312.0" y="128.0" width="52.0" height="52.0" class=""/>
<text x="338.0" y="154.0" class="tap">G</text>
<rect rx="6.0" ry="6.0" x="536.0" y="128.0" width="52.0" height="52.0" class=""/>
<text x="562.0" y="154.0" class="tap">H</text>
<rect rx="6.0" ry="6.0" x="592.0" y="121.0" width="52.0" height="52.0" class=""/>
<text x="618.0" y="147.0" class="tap">J</text>
<rect rx="6.0" ry="6.0" x="648.0" y="114.0" width="52.0" height="52.0" class=""/>
<text x="674.0" y="140.0" class="tap">K</text>
<rect rx="6.0" ry="6.0" x="704.0" y="121.0" width="52.0" height="52.0" class=""/>
<text x="730.0" y="147.0" class="tap">L</text>
<rect rx="6.0" ry="6.0" x="760.0" y="135.0" width="52.0" height="52.0" class=""/>
<text x="786.0" y="161.0" class="tap">
<tspan x="786.0" dy="-0.6em">:</tspan><tspan x="786.0" dy="1.2em">;</tspan></text>
<rect rx="6.0" ry="6.0" x="816.0" y="135.0" width="52.0" height="52.0" class=""/>
<text x="842.0" y="161.0" class="tap">
<tspan x="842.0" dy="-1.2em">&quot;</tspan><tspan x="842.0" dy="1.2em">&#x27;</tspan></text>
<text x="842.0" y="185.0" class="hold">RCtrl</text>
<rect rx="6.0" ry="6.0" x="32.0" y="191.0" width="52.0" height="52.0" class=""/>
<text x="58.0" y="217.0" class="tap">(</text>
<text x="58.0" y="241.0" class="hold">LShft</text>
<rect rx="6.0" ry="6.0" x="88.0" y="191.0" width="52.0" height="52.0" class=""/>
<text x="114.0" y="217.0" class="tap">Z</text>
<rect rx="6.0" ry="6.0" x="144.0" y="177.0" width="52.0" height="52.0" class=""/>
<text x="170.0" y="203.0" class="tap">X</text>
<rect rx="6.0" ry="6.0" x="200.0" y="170.0" width="52.0" height="52.0" class=""/>
<text x="226.0" y="196.0" class="tap">C</text>
<rect rx="6.0" ry="6.0" x="256.0" y="177.0" width="52.0" height="52.0" class=""/>
<text x="282.0" y="203.0" class="tap">V</text>
<rect rx="6.0" ry="6.0" x="312.0" y="184.0" width="52.0" height="52.0" class=""/>
<text x="338.0" y="210.0" class="tap">B</text>
<rect rx="6.0" ry="6.0" x="536.0" y="184.0" width="52.0" height="52.0" class=""/>
<text x="562.0" y="210.0" class="tap">N</text>
<rect rx="6.0" ry="6.0" x="592.0" y="177.0" width="52.0" height="52.0" class=""/>
<text x="618.0" y="203.0" class="tap">M</text>
<rect rx="6.0" ry="6.0" x="648.0" y="170.0" width="52.0" height="52.0" class=""/>
<text x="674.0" y="196.0" class="tap">
<tspan x="674.0" dy="-0.6em">&lt;</tspan><tspan x="674.0" dy="1.2em">,</tspan></text>
<rect rx="6.0" ry="6.0" x="704.0" y="177.0" width="52.0" height="52.0" class=""/>
<text x="730.0" y="203.0" class="tap">
<tspan x="730.0" dy="-0.6em">&gt;</tspan><tspan x="730.0" dy="1.2em">.</tspan></text>
<rect rx="6.0" ry="6.0" x="760.0" y="191.0" width="52.0" height="52.0" class=""/>
<text x="786.0" y="217.0" class="tap">
<tspan x="786.0" dy="-0.6em">?</tspan><tspan x="786.0" dy="1.2em">/</tspan></text>
<rect rx="6.0" ry="6.0" x="816.0" y="191.0" width="52.0" height="52.0" class=""/>
<text x="842.0" y="217.0" class="tap">)</text>
<text x="842.0" y="241.0" class="hold">RShft</text>
<rect rx="6.0" ry="6.0" x="228.0" y="234.84799999999996" width="52.0" height="52.0" class=""/>
<text x="254.0" y="260.84799999999996" class="tap">SymFun</text>
<text x="254.0" y="284.84799999999996" class="hold">LAlt</text>
<g transform="rotate(15.0, 315.59999999999997, 269.08000000000004)">
<rect rx="6.0" ry="6.0" x="289.59999999999997" y="243.08000000000004" width="52.0" height="52.0" class=""/>
<text x="315.59999999999997" y="269.08000000000004" class="tap">Enter</text>
<text x="315.59999999999997" y="293.08000000000004" class="hold">LCmd</text>
</g>
<g transform="rotate(30.0, 381.12, 280.28)">
<rect rx="6.0" ry="6.0" x="355.12" y="240.27999999999997" width="52.0" height="80.0" class=""/>
<text x="381.12" y="280.28" class="tap">Space</text>
<text x="381.12" y="318.28" class="hold">NumNav</text>
</g>
<g transform="rotate(-30.0, 518.88, 280.28)">
<rect rx="6.0" ry="6.0" x="492.88" y="240.27999999999997" width="52.0" height="80.0" class=""/>
<text x="518.88" y="280.28" class="tap">Space</text>
<text x="518.88" y="318.28" class="hold">NumNav</text>
</g>
<g transform="rotate(-15.0, 584.4, 269.08000000000004)">
<rect rx="6.0" ry="6.0" x="558.4" y="243.08000000000004" width="52.0" height="52.0" class=""/>
<text x="584.4" y="269.08000000000004" class="tap">BSpace</text>
<text x="584.4" y="293.08000000000004" class="hold">RCmd</text>
</g>
<rect rx="6.0" ry="6.0" x="620.0" y="234.84799999999996" width="52.0" height="52.0" class=""/>
<text x="646.0" y="260.84799999999996" class="tap">NumNav</text>
<text x="646.0" y="284.84799999999996" class="hold">RAlt</text>
</g>
<g class="layer-NUMNAV">
<text x="30.0" y="350.28" class="label">NUMNAV:</text>
<rect rx="6.0" ry="6.0" x="32.0" y="401.28" width="52.0" height="52.0" class=""/>
<rect rx="6.0" ry="6.0" x="88.0" y="401.28" width="52.0" height="52.0" class=""/>
<text x="114.0" y="427.28" class="tap">
<tspan x="114.0" dy="-0.6em">!</tspan><tspan x="114.0" dy="1.2em">1</tspan></text>
<rect rx="6.0" ry="6.0" x="144.0" y="387.28" width="52.0" height="52.0" class=""/>
<text x="170.0" y="413.28" class="tap">
<tspan x="170.0" dy="-0.6em">@</tspan><tspan x="170.0" dy="1.2em">2</tspan></text>
<rect rx="6.0" ry="6.0" x="200.0" y="380.28" width="52.0" height="52.0" class=""/>
<text x="226.0" y="406.28" class="tap">
<tspan x="226.0" dy="-0.6em">#</tspan><tspan x="226.0" dy="1.2em">3</tspan></text>
<rect rx="6.0" ry="6.0" x="256.0" y="387.28" width="52.0" height="52.0" class=""/>
<text x="282.0" y="413.28" class="tap">
<tspan x="282.0" dy="-0.6em">$</tspan><tspan x="282.0" dy="1.2em">4</tspan></text>
<rect rx="6.0" ry="6.0" x="312.0" y="394.28" width="52.0" height="52.0" class=""/>
<text x="338.0" y="420.28" class="tap">
<tspan x="338.0" dy="-0.6em">%</tspan><tspan x="338.0" dy="1.2em">5</tspan></text>
<rect rx="6.0" ry="6.0" x="536.0" y="394.28" width="52.0" height="52.0" class=""/>
<text x="562.0" y="420.28" class="tap">
<tspan x="562.0" dy="-0.6em">^</tspan><tspan x="562.0" dy="1.2em">6</tspan></text>
<rect rx="6.0" ry="6.0" x="592.0" y="387.28" width="52.0" height="52.0" class=""/>
<text x="618.0" y="413.28" class="tap">
<tspan x="618.0" dy="-0.6em">&amp;</tspan><tspan x="618.0" dy="1.2em">7</tspan></text>
<rect rx="6.0" ry="6.0" x="648.0" y="380.28" width="52.0" height="52.0" class=""/>
<text x="674.0" y="406.28" class="tap">
<tspan x="674.0" dy="-0.6em">*</tspan><tspan x="674.0" dy="1.2em">8</tspan></text>
<rect rx="6.0" ry="6.0" x="704.0" y="387.28" width="52.0" height="52.0" class=""/>
<text x="730.0" y="413.28" class="tap">
<tspan x="730.0" dy="-0.6em">(</tspan><tspan x="730.0" dy="1.2em">9</tspan></text>
<rect rx="6.0" ry="6.0" x="760.0" y="401.28" width="52.0" height="52.0" class=""/>
<text x="786.0" y="427.28" class="tap">
<tspan x="786.0" dy="-0.6em">)</tspan><tspan x="786.0" dy="1.2em">0</tspan></text>
<rect rx="6.0" ry="6.0" x="816.0" y="401.28" width="52.0" height="52.0" class=""/>
<text x="842.0" y="427.28" class="tap">
<tspan x="842.0" dy="-0.6em">_</tspan><tspan x="842.0" dy="1.2em">-</tspan></text>
<rect rx="6.0" ry="6.0" x="32.0" y="457.28" width="52.0" height="52.0" class=""/>
<text x="58.0" y="483.28" class="tap">Esc</text>
<text x="58.0" y="507.28" class="hold">LCtrl</text>
<rect rx="6.0" ry="6.0" x="88.0" y="457.28" width="52.0" height="52.0" class=""/>
<rect rx="6.0" ry="6.0" x="144.0" y="443.28" width="52.0" height="52.0" class=""/>
<rect rx="6.0" ry="6.0" x="200.0" y="436.28" width="52.0" height="52.0" class=""/>
<rect rx="6.0" ry="6.0" x="256.0" y="443.28" width="52.0" height="52.0" class=""/>
<rect rx="6.0" ry="6.0" x="312.0" y="450.28" width="52.0" height="52.0" class=""/>
<rect rx="6.0" ry="6.0" x="536.0" y="450.28" width="52.0" height="52.0" class=""/>
<text x="562.0" y="476.28" class="tap">Left</text>
<rect rx="6.0" ry="6.0" x="592.0" y="443.28" width="52.0" height="52.0" class=""/>
<text x="618.0" y="469.28" class="tap">Down</text>
<rect rx="6.0" ry="6.0" x="648.0" y="436.28" width="52.0" height="52.0" class=""/>
<text x="674.0" y="462.28" class="tap">Up</text>
<rect rx="6.0" ry="6.0" x="704.0" y="443.28" width="52.0" height="52.0" class=""/>
<text x="730.0" y="469.28" class="tap">Right</text>
<rect rx="6.0" ry="6.0" x="760.0" y="457.28" width="52.0" height="52.0" class=""/>
<text x="786.0" y="483.28" class="tap">
<tspan x="786.0" dy="-0.6em">+</tspan><tspan x="786.0" dy="1.2em">=</tspan></text>
<rect rx="6.0" ry="6.0" x="816.0" y="457.28" width="52.0" height="52.0" class=""/>
<text x="842.0" y="507.28" class="hold">RCtrl</text>
<rect rx="6.0" ry="6.0" x="32.0" y="513.28" width="52.0" height="52.0" class=""/>
<text x="58.0" y="539.28" class="tap">[</text>
<text x="58.0" y="563.28" class="hold">LShft</text>
<rect rx="6.0" ry="6.0" x="88.0" y="513.28" width="52.0" height="52.0" class=""/>
<rect rx="6.0" ry="6.0" x="144.0" y="499.28" width="52.0" height="52.0" class=""/>
<rect rx="6.0" ry="6.0" x="200.0" y="492.28" width="52.0" height="52.0" class=""/>
<rect rx="6.0" ry="6.0" x="256.0" y="499.28" width="52.0" height="52.0" class=""/>
<rect rx="6.0" ry="6.0" x="312.0" y="506.28" width="52.0" height="52.0" class=""/>
<rect rx="6.0" ry="6.0" x="536.0" y="506.28" width="52.0" height="52.0" class=""/>
<text x="562.0" y="532.28" class="tap">Home</text>
<rect rx="6.0" ry="6.0" x="592.0" y="499.28" width="52.0" height="52.0" class=""/>
<text x="618.0" y="525.28" class="tap">PgDown</text>
<rect rx="6.0" ry="6.0" x="648.0" y="492.28" width="52.0" height="52.0" class=""/>
<text x="674.0" y="518.28" class="tap">PgUp</text>
<rect rx="6.0" ry="6.0" x="704.0" y="499.28" width="52.0" height="52.0" class=""/>
<text x="730.0" y="525.28" class="tap">End</text>
<rect rx="6.0" ry="6.0" x="760.0" y="513.28" width="52.0" height="52.0" class=""/>
<text x="786.0" y="539.28" class="tap">Insert</text>
<rect rx="6.0" ry="6.0" x="816.0" y="513.28" width="52.0" height="52.0" class=""/>
<text x="842.0" y="539.28" class="tap">]</text>
<text x="842.0" y="563.28" class="hold">RShft</text>
<rect rx="6.0" ry="6.0" x="228.0" y="557.1279999999999" width="52.0" height="52.0" class=""/>
<text x="254.0" y="583.1279999999999" class="tap">Qwerty</text>
<text x="254.0" y="607.1279999999999" class="hold">LAlt</text>
<g transform="rotate(15.0, 315.59999999999997, 591.36)">
<rect rx="6.0" ry="6.0" x="289.59999999999997" y="565.36" width="52.0" height="52.0" class=""/>
<text x="315.59999999999997" y="591.36" class="tap">Tab</text>
<text x="315.59999999999997" y="615.36" class="hold">LCmd</text>
</g>
<g transform="rotate(30.0, 381.12, 602.56)">
<rect rx="6.0" ry="6.0" x="355.12" y="562.56" width="52.0" height="80.0" class=""/>
<text x="381.12" y="602.56" class="tap">Space</text>
<text x="381.12" y="640.56" class="hold">SymFun</text>
</g>
<g transform="rotate(-30.0, 518.88, 602.56)">
<rect rx="6.0" ry="6.0" x="492.88" y="562.56" width="52.0" height="80.0" class=""/>
<text x="518.88" y="602.56" class="tap">Space</text>
<text x="518.88" y="640.56" class="hold">SymFun</text>
</g>
<g transform="rotate(-15.0, 584.4, 591.36)">
<rect rx="6.0" ry="6.0" x="558.4" y="565.36" width="52.0" height="52.0" class=""/>
<text x="584.4" y="591.36" class="tap">Del</text>
<text x="584.4" y="615.36" class="hold">RCmd</text>
</g>
<rect rx="6.0" ry="6.0" x="620.0" y="557.1279999999999" width="52.0" height="52.0" class=""/>
<text x="646.0" y="583.1279999999999" class="tap">SymFun</text>
<text x="646.0" y="607.1279999999999" class="hold">RAlt</text>
</g>
<g class="layer-SYMFUN">
<text x="30.0" y="672.56" class="label">SYMFUN:</text>
<rect rx="6.0" ry="6.0" x="32.0" y="723.56" width="52.0" height="52.0" class=""/>
<rect rx="6.0" ry="6.0" x="88.0" y="723.56" width="52.0" height="52.0" class=""/>
<text x="114.0" y="749.56" class="tap">F1</text>
<rect rx="6.0" ry="6.0" x="144.0" y="709.56" width="52.0" height="52.0" class=""/>
<text x="170.0" y="735.56" class="tap">F2</text>
<rect rx="6.0" ry="6.0" x="200.0" y="702.56" width="52.0" height="52.0" class=""/>
<text x="226.0" y="728.56" class="tap">F3</text>
<rect rx="6.0" ry="6.0" x="256.0" y="709.56" width="52.0" height="52.0" class=""/>
<text x="282.0" y="735.56" class="tap">F4</text>
<rect rx="6.0" ry="6.0" x="312.0" y="716.56" width="52.0" height="52.0" class=""/>
<text x="338.0" y="742.56" class="tap">F5</text>
<rect rx="6.0" ry="6.0" x="536.0" y="716.56" width="52.0" height="52.0" class=""/>
<text x="562.0" y="742.56" class="tap">F6</text>
<rect rx="6.0" ry="6.0" x="592.0" y="709.56" width="52.0" height="52.0" class=""/>
<text x="618.0" y="735.56" class="tap">F7</text>
<rect rx="6.0" ry="6.0" x="648.0" y="702.56" width="52.0" height="52.0" class=""/>
<text x="674.0" y="728.56" class="tap">F8</text>
<rect rx="6.0" ry="6.0" x="704.0" y="709.56" width="52.0" height="52.0" class=""/>
<text x="730.0" y="735.56" class="tap">F9</text>
<rect rx="6.0" ry="6.0" x="760.0" y="723.56" width="52.0" height="52.0" class=""/>
<text x="786.0" y="749.56" class="tap">F10</text>
<rect rx="6.0" ry="6.0" x="816.0" y="723.56" width="52.0" height="52.0" class=""/>
<text x="842.0" y="749.56" class="tap">Å</text>
<rect rx="6.0" ry="6.0" x="32.0" y="779.56" width="52.0" height="52.0" class=""/>
<text x="58.0" y="805.56" class="tap">Esc</text>
<text x="58.0" y="829.56" class="hold">LCtrl</text>
<rect rx="6.0" ry="6.0" x="88.0" y="779.56" width="52.0" height="52.0" class=""/>
<text x="114.0" y="805.56" class="tap">BT_1</text>
<rect rx="6.0" ry="6.0" x="144.0" y="765.56" width="52.0" height="52.0" class=""/>
<text x="170.0" y="791.56" class="tap">BT_2</text>
<rect rx="6.0" ry="6.0" x="200.0" y="758.56" width="52.0" height="52.0" class=""/>
<text x="226.0" y="784.56" class="tap">BT_3</text>
<rect rx="6.0" ry="6.0" x="256.0" y="765.56" width="52.0" height="52.0" class=""/>
<text x="282.0" y="791.56" class="tap">BT_4</text>
<rect rx="6.0" ry="6.0" x="312.0" y="772.56" width="52.0" height="52.0" class=""/>
<text x="338.0" y="798.56" class="tap">BT_5</text>
<rect rx="6.0" ry="6.0" x="536.0" y="772.56" width="52.0" height="52.0" class=""/>
<text x="562.0" y="798.56" class="tap">Left</text>
<text x="562.0" y="822.56" class="hold">Ct/Al/Cm</text>
<rect rx="6.0" ry="6.0" x="592.0" y="765.56" width="52.0" height="52.0" class=""/>
<text x="618.0" y="791.56" class="tap">Down</text>
<text x="618.0" y="815.56" class="hold">Ct/Al/Cm</text>
<rect rx="6.0" ry="6.0" x="648.0" y="758.56" width="52.0" height="52.0" class=""/>
<text x="674.0" y="784.56" class="tap">Up</text>
<text x="674.0" y="808.56" class="hold">Ct/Al/Cm</text>
<rect rx="6.0" ry="6.0" x="704.0" y="765.56" width="52.0" height="52.0" class=""/>
<text x="730.0" y="791.56" class="tap">Right</text>
<text x="730.0" y="815.56" class="hold">Ct/Al/Cm</text>
<rect rx="6.0" ry="6.0" x="760.0" y="779.56" width="52.0" height="52.0" class=""/>
<text x="786.0" y="805.56" class="tap">Ö</text>
<rect rx="6.0" ry="6.0" x="816.0" y="779.56" width="52.0" height="52.0" class=""/>
<text x="842.0" y="805.56" class="tap">Ä</text>
<text x="842.0" y="829.56" class="hold">RCtrl</text>
<rect rx="6.0" ry="6.0" x="32.0" y="835.56" width="52.0" height="52.0" class=""/>
<text x="58.0" y="861.56" class="tap">LShft</text>
<rect rx="6.0" ry="6.0" x="88.0" y="835.56" width="52.0" height="52.0" class=""/>
<rect rx="6.0" ry="6.0" x="144.0" y="821.56" width="52.0" height="52.0" class=""/>
<rect rx="6.0" ry="6.0" x="200.0" y="814.56" width="52.0" height="52.0" class=""/>
<rect rx="6.0" ry="6.0" x="256.0" y="821.56" width="52.0" height="52.0" class=""/>
<text x="282.0" y="847.56" class="tap">
<tspan x="282.0" dy="-0.6em">OUT</tspan><tspan x="282.0" dy="1.2em">TOG</tspan></text>
<rect rx="6.0" ry="6.0" x="312.0" y="828.56" width="52.0" height="52.0" class=""/>
<text x="338.0" y="854.56" class="tap">
<tspan x="338.0" dy="-0.6em">BT</tspan><tspan x="338.0" dy="1.2em">CLR</tspan></text>
<rect rx="6.0" ry="6.0" x="536.0" y="828.56" width="52.0" height="52.0" class=""/>
<rect rx="6.0" ry="6.0" x="592.0" y="821.56" width="52.0" height="52.0" class=""/>
<rect rx="6.0" ry="6.0" x="648.0" y="814.56" width="52.0" height="52.0" class=""/>
<rect rx="6.0" ry="6.0" x="704.0" y="821.56" width="52.0" height="52.0" class=""/>
<rect rx="6.0" ry="6.0" x="760.0" y="835.56" width="52.0" height="52.0" class=""/>
<rect rx="6.0" ry="6.0" x="816.0" y="835.56" width="52.0" height="52.0" class=""/>
<text x="842.0" y="861.56" class="tap">Rshft</text>
<rect rx="6.0" ry="6.0" x="228.0" y="879.4079999999999" width="52.0" height="52.0" class=""/>
<text x="254.0" y="905.4079999999999" class="tap">NumNav</text>
<text x="254.0" y="929.4079999999999" class="hold">LAlt</text>
<g transform="rotate(15.0, 315.59999999999997, 913.64)">
<rect rx="6.0" ry="6.0" x="289.59999999999997" y="887.64" width="52.0" height="52.0" class=""/>
<text x="315.59999999999997" y="913.64" class="tap">LCmd</text>
</g>
<g transform="rotate(30.0, 381.12, 924.8399999999999)">
<rect rx="6.0" ry="6.0" x="355.12" y="884.8399999999999" width="52.0" height="80.0" class=""/>
<text x="381.12" y="924.8399999999999" class="tap">Space</text>
<text x="381.12" y="962.8399999999999" class="hold">Querty</text>
</g>
<g transform="rotate(-30.0, 518.88, 924.8399999999999)">
<rect rx="6.0" ry="6.0" x="492.88" y="884.8399999999999" width="52.0" height="80.0" class=""/>
<text x="518.88" y="924.8399999999999" class="tap">Space</text>
<text x="518.88" y="962.8399999999999" class="hold">Querty</text>
</g>
<g transform="rotate(-15.0, 584.4, 913.64)">
<rect rx="6.0" ry="6.0" x="558.4" y="887.64" width="52.0" height="52.0" class=""/>
<text x="584.4" y="913.64" class="tap">RCmd</text>
</g>
<rect rx="6.0" ry="6.0" x="620.0" y="879.4079999999999" width="52.0" height="52.0" class=""/>
<text x="646.0" y="905.4079999999999" class="tap">Querty</text>
<text x="646.0" y="929.4079999999999" class="hold">LAlt</text>
</g>
</svg>
